<?xml version="1.0" encoding="UTF-8"?>
<svg id="Layer_2" data-name="Layer 2" xmlns="http://www.w3.org/2000/svg" viewBox="0 0 140.91 173.52">
  <defs>
    <style>
      .cls-1 {
        fill: #303030;
      }
    </style>
  </defs>
  <g id="Capa_1" data-name="Capa 1">
    <g>
      <path class="cls-1" d="M51.34,127.28c-.23,3.9-.46,7.79-.67,11.69-.05.91-.05,1.83-.07,2.74,0,.04.07.08.11.1.05.03.14.06.16.04.3-.3.6-.6.87-.93,2.95-3.58,5.89-7.16,8.84-10.74,2.71-3.3,5.43-6.59,8.15-9.89.19-.24.38-.48.58-.7.22-.25.5-.35.82-.25.41.13.81.28,1.2.43,6.77,2.6,13.54,5.21,20.31,7.81,1.88.72,3.75,1.44,5.63,2.16.28.11.58.2.87.26.09.02.22-.07.32-.13.02-.01.02-.12-.01-.17-.26-.48-.51-.96-.8-1.43-4.76-7.6-9.53-15.19-14.28-22.79-1.26-2.01-1.3-1.39.19-3.21,5.3-6.46,10.62-12.91,15.93-19.36.43-.52.84-1.05,1.24-1.58.06-.08.08-.25.04-.34-.03-.08-.18-.17-.27-.16-.48.08-.96.16-1.43.28-8.68,2.19-17.37,4.39-26.05,6.58-.18.04-.36.09-.54.09-.11,0-.26-.06-.32-.14-.26-.34-.51-.68-.74-1.04-3.05-4.85-6.1-9.71-9.16-14.56-1.82-2.89-3.64-5.78-5.46-8.67-.26-.41-.54-.81-.82-1.21-.02-.03-.12-.02-.17,0-.05.01-.11.05-.12.09-.12,1.03-.25,2.06-.34,3.09-.24,3.1-.47,6.2-.69,9.31-.17,2.37-.32,4.75-.49,7.12-.18,2.49-.38,4.99-.57,7.48-.05.67-.1,1.34-.13,2.01-.09,1.88,0,1.51-1.7,2.03-1.75.53-3.52.98-5.29,1.45-3.82,1.04-7.65,2.07-11.47,3.1-7.53,2.03-15.06,4.06-22.59,6.09-.35.1-.71.19-1.06.29-1.22.35-2.37-.66-2.54-1.53-.36-1.79-.74-3.58-1.1-5.37-1.06-5.2-2.12-10.39-3.17-15.59-1.04-5.14-2.07-10.28-3.11-15.42-.42-2.09-.86-4.18-1.29-6.27-.07-.36-.12-.72-.17-1.08-.04-.31.15-.58.49-.67,2.76-.76,5.53-1.51,8.29-2.26,15.52-4.23,31.04-8.47,46.56-12.69,12.76-3.47,25.52-6.94,38.27-10.41,2.88-.78,5.76-1.58,8.64-2.36.23-.06.47-.15.71-.15.15,0,.36.12.45.25.13.19.2.44.28.67,2.08,6.12,4.15,12.24,6.22,18.35,7.85,23.15,15.7,46.29,23.54,69.44,2.35,6.93,4.7,13.85,7.05,20.78.16.46.29.93.41,1.4.02.09-.06.27-.13.3-.33.15-.67.29-1.02.39-4.94,1.35-9.87,2.7-14.81,4.04-9.23,2.51-18.46,5.02-27.69,7.53-10.05,2.74-20.1,5.49-30.15,8.22-10.11,2.76-20.22,5.5-30.33,8.26-4.12,1.12-8.23,2.25-12.34,3.37-.29.08-.6.1-.9.11-.1,0-.24-.09-.29-.18-.08-.15-.13-.34-.16-.51-.6-2.93-1.2-5.85-1.8-8.78-.62-3.05-1.24-6.09-1.84-9.14-.09-.46-.31-.77-.7-1.01-1.24-.78-2.49-1.54-3.7-2.35-2.13-1.44-4.11-3.06-5.93-4.87-1.17-1.17-2.25-2.41-3.15-3.79-.94-1.44-1.67-2.97-2.03-4.67-.37-1.73-.2-3.39.42-5.03.55-1.45,1.44-2.68,2.49-3.8.88-.94,1.86-1.76,2.91-2.51,1.19-.86,2.44-1.61,3.73-2.3,2.8-1.51,5.71-2.74,8.72-3.77,4.79-1.64,9.63-3.08,14.51-4.43,4.75-1.32,9.52-2.59,14.32-3.77.23-.06.47-.09.71-.12.14-.02.23.04.26.19.03.18.08.36.07.53-.05,1.34-.1,2.68-.17,4.02-.08,1.58-.17,3.17-.27,4.75-.1,1.77-.21,3.53-.32,5.3.01,0,.03,0,.04,0Z"/>
      <path class="cls-1" d="M26.65,36.35c-.01,2.18.18,5.35.53,8.5.08.73.2,1.45.28,2.18.03.28-.1.52-.32.57-1.42.36-2.86.61-4.31.77-.32.04-.61-.17-.65-.49-.16-1.15-.34-2.29-.47-3.44-.47-4.38-.59-8.77-.39-13.16.21-4.52.83-8.98,2.16-13.33.79-2.57,1.82-5.04,3.21-7.36,1.82-3.02,4.12-5.59,7.11-7.5,1.6-1.03,3.3-1.86,5.13-2.37,2.68-.75,5.39-.9,8.15-.51,3.44.49,6.58,1.76,9.51,3.59,2.92,1.83,5.46,4.1,7.77,6.63,1.98,2.17,3.75,4.49,5.38,6.93,3.06,4.58,5.62,9.42,7.76,14.49.14.34.27.68.4,1.02.08.22-.04.5-.28.59-1.42.53-2.85,1.06-4.28,1.57-.09.03-.28-.03-.32-.11-.18-.31-.34-.64-.48-.97-1.66-3.94-3.61-7.73-5.84-11.37-1.73-2.81-3.63-5.5-5.8-7.98-1.57-1.79-3.27-3.46-5.16-4.91-1.75-1.34-3.64-2.44-5.7-3.25-2.63-1.02-5.33-1.23-8.09-.89-.97.12-1.9.42-2.81.8-2.41,1.01-4.44,2.53-6.11,4.54-1.41,1.7-2.5,3.6-3.35,5.64-1.04,2.49-1.71,5.08-2.19,7.72-.66,3.68-.85,7.39-.84,12.11Z"/>
    </g>
  </g>
</svg>