<?xml version="1.0" encoding="UTF-8"?>
<svg id="Layer_2" data-name="Layer 2" xmlns="http://www.w3.org/2000/svg" viewBox="0 0 368.19 116.8">
  <defs>
    <style>
      .cls-1 {
        fill: #fff;
      }
    </style>
  </defs>
  <g id="Capa_1" data-name="Capa 1">
    <g>
      <g>
        <path class="cls-1" d="M307.9,85.67c-.15,2.62-.31,5.25-.45,7.87-.03.61-.03,1.23-.05,1.84,0,.02.05.06.08.07.03.02.1.04.11.03.2-.2.41-.41.59-.63,1.99-2.41,3.97-4.82,5.95-7.23,1.83-2.22,3.66-4.44,5.48-6.66.13-.16.26-.32.39-.47.15-.17.34-.23.55-.17.27.09.54.19.81.29,4.56,1.75,9.11,3.5,13.67,5.26,1.26.49,2.53.97,3.79,1.45.19.07.39.14.59.18.06.01.15-.05.21-.09.02,0,.01-.08,0-.12-.18-.32-.34-.65-.54-.96-3.2-5.11-6.41-10.22-9.61-15.34-.85-1.35-.88-.94.13-2.16,3.57-4.35,7.15-8.69,10.72-13.03.29-.35.56-.71.83-1.07.04-.06.05-.17.03-.23-.02-.05-.12-.11-.18-.11-.32.05-.65.11-.96.19-5.85,1.48-11.69,2.95-17.53,4.43-.12.03-.24.06-.36.06-.07,0-.17-.04-.22-.09-.18-.23-.34-.46-.5-.7-2.06-3.27-4.11-6.53-6.16-9.8-1.22-1.95-2.45-3.89-3.67-5.84-.17-.28-.37-.54-.55-.81-.01-.02-.08-.02-.12,0-.03,0-.08.03-.08.06-.08.69-.17,1.38-.23,2.08-.16,2.09-.32,4.18-.47,6.26-.11,1.6-.21,3.2-.33,4.79-.12,1.68-.26,3.36-.39,5.04-.03.45-.06.9-.09,1.35-.06,1.26,0,1.02-1.15,1.36-1.18.36-2.37.66-3.56.98-2.57.7-5.15,1.39-7.72,2.09-5.07,1.37-10.14,2.73-15.2,4.1-.24.06-.48.13-.71.19-.82.23-1.59-.45-1.71-1.03-.24-1.21-.5-2.41-.74-3.62-.71-3.5-1.43-7-2.13-10.49-.7-3.46-1.39-6.92-2.09-10.38-.28-1.41-.58-2.81-.87-4.22-.05-.24-.08-.49-.12-.73-.03-.21.1-.39.33-.45,1.86-.51,3.72-1.02,5.58-1.52,10.45-2.85,20.89-5.7,31.34-8.54,8.59-2.34,17.18-4.67,25.76-7.01,1.94-.53,3.88-1.06,5.82-1.59.16-.04.32-.1.48-.1.1,0,.24.08.3.17.09.13.13.3.19.45,1.4,4.12,2.79,8.24,4.19,12.35,5.28,15.58,10.56,31.16,15.85,46.74,1.58,4.66,3.17,9.32,4.75,13.98.1.31.2.62.27.94.01.06-.04.18-.09.2-.22.1-.45.2-.68.26-3.32.91-6.65,1.81-9.97,2.72-6.21,1.69-12.43,3.38-18.64,5.07-6.77,1.84-13.53,3.69-20.3,5.54-6.81,1.85-13.61,3.71-20.42,5.56-2.77.75-5.54,1.52-8.31,2.27-.19.05-.4.07-.6.08-.06,0-.16-.06-.19-.12-.06-.1-.08-.23-.11-.34-.4-1.97-.81-3.94-1.21-5.91-.42-2.05-.84-4.1-1.24-6.15-.06-.31-.21-.52-.47-.68-.83-.52-1.68-1.03-2.49-1.59-1.43-.97-2.77-2.06-3.99-3.28-.79-.79-1.51-1.62-2.12-2.55-.63-.97-1.12-2-1.37-3.14-.25-1.16-.14-2.28.28-3.38.37-.98.97-1.81,1.67-2.56.59-.63,1.26-1.18,1.96-1.69.8-.58,1.65-1.08,2.51-1.55,1.88-1.01,3.84-1.85,5.87-2.54,3.22-1.1,6.48-2.07,9.76-2.98,3.2-.89,6.41-1.74,9.64-2.54.16-.04.32-.06.48-.08.1-.02.16.03.17.13.02.12.05.24.05.36-.03.9-.07,1.81-.11,2.71-.05,1.07-.12,2.13-.18,3.2-.07,1.19-.14,2.38-.22,3.57,0,0,.02,0,.03,0Z"/>
        <path class="cls-1" d="M291.28,24.46c0,1.47.12,3.6.36,5.72.05.49.13.98.19,1.46.02.19-.07.35-.21.39-.96.24-1.92.41-2.9.52-.21.02-.41-.12-.44-.33-.11-.77-.23-1.54-.31-2.32-.32-2.95-.4-5.9-.26-8.86.14-3.04.56-6.05,1.45-8.97.53-1.73,1.22-3.4,2.16-4.95,1.22-2.04,2.78-3.76,4.78-5.05,1.08-.69,2.22-1.25,3.45-1.6,1.8-.5,3.63-.61,5.49-.34,2.32.33,4.43,1.18,6.4,2.42,1.96,1.23,3.67,2.76,5.23,4.46,1.33,1.46,2.52,3.03,3.62,4.67,2.06,3.08,3.78,6.34,5.23,9.75.1.23.18.46.27.69.06.15-.03.34-.19.4-.96.36-1.92.71-2.88,1.06-.06.02-.19-.02-.22-.07-.12-.21-.23-.43-.33-.66-1.12-2.65-2.43-5.21-3.93-7.66-1.16-1.89-2.44-3.7-3.91-5.37-1.06-1.21-2.2-2.33-3.48-3.31-1.18-.9-2.45-1.65-3.84-2.19-1.77-.69-3.59-.83-5.45-.6-.65.08-1.28.28-1.89.54-1.62.68-2.99,1.7-4.11,3.05-.95,1.15-1.68,2.43-2.25,3.8-.7,1.67-1.15,3.42-1.47,5.2-.45,2.47-.57,4.97-.56,8.15Z"/>
      </g>
      <g>
        <path class="cls-1" d="M43.62,48.66c0-4.71,0-9.42,0-14.12,0-.31,0-.62.01-.93,0-.24.16-.4.42-.4,1.07,0,2.13-.01,3.2-.02.89,0,1.78,0,2.66,0,.34,0,.5.15.51.46.02.53.04,1.06.06,1.59,0,.12.07.16.18.14.04,0,.09,0,.12-.02.12-.13.24-.26.36-.39.48-.53,1.01-1,1.62-1.37,1.19-.74,2.5-1.15,3.87-1.34,1.01-.14,2.03-.18,3.06-.09,2.89.26,5.25,1.51,7.12,3.72.23.27.44.55.68.82.04.04.19.04.24,0,.16-.15.31-.32.45-.49,2.03-2.48,4.67-3.74,7.83-4.01,1.16-.1,2.31-.1,3.46.03,2.29.27,4.39,1.05,6.23,2.47,1.86,1.43,3.08,3.29,3.75,5.53.52,1.76.73,3.56.78,5.39.02.75,0,1.51,0,2.27,0,4.93,0,9.86,0,14.79,0,.4-.01.8-.02,1.2,0,.17-.17.32-.34.34-.04,0-.09.02-.13.02-2.18,0-4.35,0-6.53,0-.26,0-.4-.15-.41-.41,0-.13-.01-.27-.01-.4,0-.36,0-.71,0-1.07,0-4.93,0-9.86,0-14.79,0-1.07-.07-2.13-.22-3.19-.1-.75-.31-1.48-.6-2.18-.88-2.11-2.52-3.14-4.77-3.24-2.37-.11-5.19,1.25-6.09,4.42-.34,1.21-.41,2.45-.48,3.69-.03.49-.01.98-.01,1.47,0,4.71,0,9.42,0,14.12,0,.36,0,.71,0,1.07,0,.4-.13.51-.58.52-.09,0-.18,0-.27,0-1.91,0-3.82,0-5.73,0-.18,0-.35-.02-.53-.03-.16-.01-.32-.18-.32-.36-.01-.27-.02-.53-.02-.8,0-3.64,0-7.28,0-10.93,0-1.73,0-3.46,0-5.2,0-1.02-.07-2.04-.32-3.04-.22-.87-.52-1.69-1.01-2.45-.82-1.25-1.94-2.03-3.42-2.33-.98-.2-1.93-.2-2.9.01-1.33.29-2.35,1.01-3.07,2.16-.55.88-.86,1.85-1.04,2.86-.19,1.01-.3,2.02-.3,3.04,0,1.42-.01,2.84-.02,4.26,0,3.82,0,7.64,0,11.46,0,.31,0,.62-.02.93,0,.22-.2.38-.44.4-.09,0-.18,0-.27,0-2.04,0-4.09,0-6.13,0-.13,0-.27-.01-.39-.06-.07-.03-.16-.12-.16-.19-.03-.4-.04-.8-.04-1.2,0-4.71,0-9.42,0-14.12Z"/>
        <path class="cls-1" d="M126.26,115.74c-8.71.05-16.44-5.19-19.81-12.72-1.31-2.93-1.89-5.99-1.84-9.19.13-8.91,5.96-17.27,15.08-20.16,2.26-.72,4.58-1.02,6.95-.99,3.63.05,7.03.93,10.18,2.73,5.53,3.16,9.11,7.84,10.53,14.06,2.77,12.16-5.03,23.05-15.95,25.67-1.69.41-3.41.59-5.14.6ZM140.22,94.33c0-3.4-.96-6.4-3-9.01-3.31-4.24-7.7-6.01-13.02-5.34-2.8.35-5.25,1.59-7.31,3.55-2.72,2.58-4.24,5.75-4.55,9.5-.2,2.44.17,4.78,1.14,7.02,2.1,4.82,6.75,8.27,12.1,8.5,2.31.1,4.5-.32,6.58-1.32,4.79-2.3,8.11-7.39,8.05-12.89Z"/>
        <path class="cls-1" d="M36.06,64.22c-1.24,0-2.49,0-3.73,0-.25,0-.41-.14-.51-.35-.14-.32-.28-.65-.42-.98-1.14-2.74-2.27-5.49-3.41-8.23-.12-.29-.25-.57-.37-.86-.06-.14-.18-.2-.3-.23-.13-.03-.26-.03-.4-.03-4.53,0-9.05,0-13.58,0-.04,0-.09,0-.13,0-.37-.03-.56.19-.69.49-.12.29-.23.58-.35.86-1.14,2.74-2.27,5.49-3.41,8.23-.12.29-.23.58-.38.85-.05.1-.19.18-.31.21-.17.04-.35.03-.53.03-2.31,0-4.62,0-6.92,0-.13,0-.26-.02-.4-.02-.12,0-.26-.17-.22-.27.13-.33.25-.66.38-.99,3.16-7.61,6.33-15.23,9.49-22.84,2.2-5.28,4.4-10.56,6.6-15.84.14-.33.29-.65.41-.98.13-.35.37-.45.72-.45,1.64,0,3.28.01,4.93,0,.43,0,.64.2.79.56.46,1.11.92,2.21,1.39,3.31,5.04,12.02,10.07,24.04,15.11,36.06.14.33.26.66.39.99.09.24-.04.46-.28.46-1.29,0-2.57,0-3.86,0,0,0,0,0,0,0ZM20.02,46.35s0-.01,0-.02c1.29,0,2.57,0,3.86,0,.22,0,.44-.02.66-.06.05,0,.12-.13.11-.2,0-.13-.05-.26-.09-.38-1.39-3.78-2.79-7.57-4.19-11.35-.06-.16-.16-.32-.24-.47-.01-.02-.07-.05-.09-.04-.04.01-.08.05-.1.09-.23.57-.47,1.15-.69,1.73-1.16,3.12-2.31,6.23-3.46,9.35-.12.33-.23.67-.34,1-.04.11.07.29.18.29,1.46.02,2.93.04,4.39.06Z"/>
        <path class="cls-1" d="M114.59,52.02c-3.64,0-7.28,0-10.92,0-.31,0-.61.04-.92.08-.06,0-.13.12-.14.19,0,.13,0,.27.05.38,1.25,3.2,4.47,5.67,8.12,5.7.98,0,1.95-.05,2.9-.33,1.53-.46,2.82-1.28,3.8-2.56.16-.21.32-.42.46-.65.18-.29.41-.44.76-.43.53.01,1.07,0,1.6,0,1.6,0,3.2,0,4.79,0,.22,0,.44.02.66.05.06,0,.15.12.14.18-.02.17-.06.34-.12.51-.98,2.59-2.6,4.73-4.75,6.47-2.59,2.09-5.55,3.35-8.87,3.58-7.58.52-14.21-3.9-16.58-10.8-.87-2.51-1.14-5.09-.81-7.74.38-3.07,1.43-5.85,3.32-8.3,2.42-3.15,5.6-5.14,9.5-5.91,3.44-.68,6.81-.42,10.02,1.05,4.65,2.12,7.59,5.72,8.92,10.64.37,1.38.53,2.78.53,4.21,0,1.07-.18,2.12-.35,3.17-.05.33-.23.48-.53.48-.36,0-.71,0-1.07,0-3.51,0-7.01,0-10.52,0ZM110.75,46.05c2.13,0,4.26,0,6.38,0,.58,0,1.15,0,1.73,0,.4,0,.54-.18.45-.59-.16-.69-.37-1.37-.68-2.01-.96-2.03-2.51-3.4-4.66-4.07-2.1-.65-4.2-.6-6.27.13-1.32.46-2.44,1.24-3.36,2.31-.97,1.13-1.61,2.43-1.98,3.87-.01.04-.01.09,0,.13.04.07.08.18.14.18.31.03.62.06.92.06,2.44,0,4.88,0,7.32,0Z"/>
        <path class="cls-1" d="M234.08,102.72c-3.42,0-6.84,0-10.25,0-.36,0-.71,0-1.07,0-.63,0-.77.23-.5.85,1.48,3.38,4.66,5.36,7.74,5.47,1.11.04,2.22-.01,3.29-.35,1.53-.47,2.8-1.32,3.77-2.6.16-.21.31-.43.45-.66.16-.25.4-.34.68-.33.09,0,.18,0,.27,0,2.09,0,4.17,0,6.26,0,.18,0,.36.02.52.06.07.02.16.13.15.19-.01.17-.05.35-.12.51-.93,2.41-2.41,4.43-4.36,6.11-2.53,2.17-5.45,3.52-8.76,3.84-8.03.79-15.27-4.01-17.39-11.81-1.16-4.27-.79-8.46,1.24-12.42,2.4-4.68,6.22-7.55,11.4-8.52,3.69-.69,7.26-.25,10.6,1.52,4.46,2.38,7.19,6.09,8.22,11.03.47,2.24.44,4.5-.04,6.74-.03.16-.21.31-.38.32-.4,0-.8.02-1.2.02-3.51,0-7.01,0-10.52,0ZM230.29,96.72c2.61,0,5.22,0,7.84,0,.8,0,.84-.04.63-.83-.15-.55-.32-1.11-.55-1.63-.96-2.15-2.57-3.56-4.82-4.23-1.51-.45-3.04-.53-4.6-.25-1.7.3-3.2,1-4.44,2.22-1.17,1.14-1.92,2.53-2.38,4.08-.04.12-.04.26-.03.39,0,.07.08.18.13.19.26.04.52.06.79.06,2.48,0,4.96,0,7.44,0Z"/>
        <path class="cls-1" d="M229.06,48.69c0,4.66,0,9.32,0,13.98,0,.4-.01.8-.03,1.2,0,.17-.17.32-.35.34-.04,0-.09.02-.13.02-1.95,0-3.91,0-5.86,0-.04,0-.09-.01-.13-.02-.17-.01-.34-.17-.34-.33-.01-.8-.02-1.6-.02-2.4,0-.18,0-.36-.03-.53-.01-.06-.11-.12-.17-.16-.02-.01-.09,0-.11.03-.2.17-.4.35-.6.52-2.21,1.97-4.8,3.15-7.69,3.69-4.7.88-10.54-.81-14.09-5.85-1.45-2.06-2.39-4.34-2.89-6.81-.4-1.97-.49-3.97-.25-5.96.57-4.66,2.58-8.55,6.39-11.39,3.29-2.45,7.04-3.32,11.07-2.75,2.84.4,5.29,1.74,7.36,3.73.22.21.43.44.65.67.08.08.15.07.23.03.09-.05.12-.1.12-.21,0-.71,0-1.42.01-2.13,0-.31.02-.62.05-.93,0-.07.09-.15.16-.18.12-.05.26-.08.38-.08,1.86,0,3.73,0,5.59,0,.13,0,.27,0,.39.05.12.04.24.13.24.28.01.4.03.8.03,1.2,0,4.66,0,9.32,0,13.98ZM221.97,48.68c.02-1.33-.09-2.29-.6-3.72-1.88-5.24-7.01-6.89-11.15-5.6-2.37.74-4.1,2.25-5.26,4.41-1,1.84-1.35,3.83-1.19,5.92.15,2.06.86,3.9,2.2,5.46,2.38,2.77,5.43,3.74,8.97,3.04,2.75-.55,4.69-2.21,5.95-4.69.77-1.53,1.14-3.16,1.1-4.81Z"/>
        <path class="cls-1" d="M179.91,99.4c0,4.7,0,9.41,0,14.11,0,.35,0,.71-.03,1.06,0,.13-.09.25-.24.27-.13.02-.26.04-.39.04-1.82,0-3.64,0-5.46,0-.13,0-.27-.01-.4-.03-.14-.02-.25-.13-.25-.26-.02-.62-.02-1.24-.04-1.86,0-.17-.04-.35-.1-.51-.01-.04-.2-.08-.23-.05-.31.31-.61.65-.91.97-1.02,1.09-2.22,1.91-3.66,2.32-.59.17-1.2.33-1.82.39-2.66.25-5.23-.15-7.64-1.33-2.77-1.35-4.64-3.5-5.58-6.45-.42-1.32-.67-2.67-.76-4.04-.07-1.11-.11-2.22-.11-3.33-.01-5.19,0-10.39,0-15.58,0-.31.01-.62.02-.93,0-.17.16-.3.36-.31.09,0,.18-.01.27-.01,2.04,0,4.08,0,6.13,0,.13,0,.27.02.4.03.08,0,.25.18.25.27.01.4.03.8.03,1.2,0,4.57,0,9.14,0,13.72,0,1.02.05,2.04.1,3.06.05.94.26,1.85.55,2.73.15.46.34.92.57,1.34.92,1.68,2.36,2.61,4.26,2.79.57.05,1.15.05,1.73.01,1.5-.11,2.7-.79,3.63-1.97.56-.71.94-1.51,1.21-2.36.32-1.02.55-2.06.6-3.13.03-.8.06-1.6.06-2.4,0-4.62,0-9.23,0-13.85,0-.4.02-.8.05-1.19,0-.07.09-.14.16-.18.07-.04.17-.06.25-.06,2.22,0,4.44,0,6.66,0,.18,0,.32.15.32.34,0,.4.01.8.01,1.2,0,4.66,0,9.32,0,13.98Z"/>
        <path class="cls-1" d="M234.43,48.65v-13.72c0-.31,0-.62,0-.93,0-.79.04-.82.82-.82,1.73,0,3.46,0,5.19,0,.22,0,.44.04.65.08.07.01.16.11.17.18.04.26.05.53.06.79.02.4.03.79.07,1.19,0,.04.17.11.21.09.15-.09.28-.22.42-.33.38-.31.75-.63,1.14-.92,2.11-1.59,4.5-2.25,7.12-2.13,2.51.11,4.77.95,6.81,2.38,1.96,1.37,3.27,3.23,4.01,5.49.46,1.4.73,2.84.81,4.3.06.97.08,1.95.09,2.93,0,5.24,0,10.48,0,15.71,0,.35-.04.7-.06,1.06,0,.11-.07.16-.18.17-.13.01-.26.05-.39.05-2.04,0-4.08,0-6.13,0-.13,0-.26-.03-.39-.04-.16-.01-.26-.15-.27-.26-.04-.4-.04-.8-.04-1.2,0-4.53,0-9.06,0-13.58,0-.84-.03-1.69-.07-2.53-.04-1.07-.25-2.11-.54-3.14-.18-.64-.44-1.25-.77-1.84-1.18-2.1-3.27-2.87-5.39-2.67-.89.08-1.73.39-2.5.84-1.68.98-2.65,2.45-3.01,4.34-.17.87-.32,1.75-.32,2.64,0,.98-.04,1.95-.04,2.93,0,4.39,0,8.79,0,13.18,0,.35-.01.71-.04,1.06,0,.07-.1.15-.17.19-.07.04-.17.06-.26.06-2.18,0-4.35,0-6.53,0-.27,0-.43-.14-.44-.38-.01-.4-.02-.8-.02-1.2,0-4.66,0-9.32,0-13.98Z"/>
        <path class="cls-1" d="M189.07,43.45c-1.24,0-2.49,0-3.73,0-.24,0-.43-.09-.56-.29-.1-.15-.19-.3-.29-.45-.15-.22-.3-.44-.45-.66-1.49-2.05-3.52-3.08-6.03-3.12-4.05-.08-6.99,2.1-8.35,5.28-1.17,2.73-1.27,5.52-.2,8.3,1.01,2.63,2.86,4.45,5.54,5.38,1.37.48,2.78.59,4.2.4,1.26-.17,2.37-.71,3.37-1.49.74-.58,1.37-1.26,1.91-2.03.57-.8.45-.69,1.42-.69,2.13,0,4.26,0,6.4,0,.22,0,.44.02.66.03.1,0,.24.18.23.27-.02.09-.02.18-.05.26-1.22,3.09-3.1,5.68-5.81,7.63-2.17,1.56-4.6,2.45-7.25,2.81-3.12.42-6.11,0-8.97-1.28-5.2-2.32-8.42-7.01-9.44-11.68-1.84-8.44,3.1-16.69,11.08-19.25,1.45-.46,2.93-.71,4.45-.76,2.75-.08,5.39.42,7.86,1.66,3.88,1.94,6.5,5,8.06,9.01.05.12.06.26.06.39,0,.07-.06.19-.11.2-.17.05-.35.07-.52.07-1.15,0-2.31,0-3.46,0h0Z"/>
        <path class="cls-1" d="M252.78,102.76c0-3.55,0-7.1,0-10.65,0-.36,0-.71,0-1.07-.01-.4-.15-.55-.57-.56-.75-.01-1.51,0-2.26-.01-.18,0-.36,0-.53-.05-.12-.03-.24-.12-.25-.27,0-.13-.03-.26-.03-.4,0-1.82,0-3.64,0-5.46,0-.27.13-.4.4-.41.13,0,.27-.01.4-.01.67,0,1.33,0,2,0,.18,0,.36,0,.53-.06.11-.04.25-.16.26-.26.05-.3.06-.62.06-.93,0-2.44,0-4.88,0-7.33,0-.36,0-.71,0-1.07,0-.67.05-.72.65-.72,2.04,0,4.08,0,6.13,0,.13,0,.26.02.39.05.15.03.24.15.25.27.03.35.03.71.04,1.06,0,2.53,0,5.06,0,7.59,0,.35,0,.71.04,1.06.01.11.07.26.25.27.44.02.89.04,1.33.04.62,0,1.24,0,1.86,0q.96,0,.97.93c0,.62,0,1.24,0,1.86,0,1.02,0,2.04,0,3.06,0,.13-.02.27-.03.4-.01.16-.18.33-.35.33-.62.01-1.24.01-1.86.02-.62,0-1.24.02-1.86.03-.16,0-.32.18-.32.35,0,.44-.02.89-.02,1.33,0,7.01,0,14.03,0,21.04,0,.4,0,.8,0,1.2,0,.32-.15.46-.51.46-2.18,0-4.35,0-6.53,0-.27,0-.4-.13-.41-.4,0-.13,0-.27,0-.4,0-.31,0-.62,0-.93,0-3.46,0-6.93,0-10.39Z"/>
        <path class="cls-1" d="M187.57,102.69c0-3.69,0-7.37,0-11.06,0-.31-.02-.62-.06-.92,0-.07-.1-.16-.17-.18-.17-.04-.35-.06-.53-.06-.71,0-1.42,0-2.13,0-.17,0-.35-.03-.52-.07-.07-.02-.14-.11-.18-.18-.04-.08-.05-.17-.05-.26,0-1.86,0-3.73,0-5.59,0-.04,0-.09.01-.13.01-.14.21-.33.36-.34.58,0,1.15-.01,1.73-.02.4,0,.8-.01,1.2-.03.16,0,.32-.18.32-.36.01-.35.02-.71.02-1.06,0-2.58,0-5.15,0-7.73,0-.31.01-.62.04-.93,0-.07.1-.15.17-.19.07-.04.17-.05.26-.05,2.18,0,4.35,0,6.53,0,.09,0,.18,0,.26.05.07.04.16.12.16.19.03.31.04.62.04.93,0,2.66,0,5.33,0,7.99,0,.31.02.62.06.93,0,.07.1.16.17.18.17.04.35.07.52.07.93,0,1.86,0,2.8,0,.22,0,.45,0,.66.06.1.03.21.15.25.26.05.12.03.26.03.39,0,1.73,0,3.46,0,5.19,0,.13-.02.26-.04.39-.02.16-.15.23-.27.25-.22.04-.44.05-.66.05-.71,0-1.42,0-2.13,0-.31,0-.62,0-.93.01-.24,0-.43.18-.44.4,0,.4-.02.8-.02,1.2,0,6.93,0,13.85,0,20.78,0,.31,0,.62,0,.93,0,1.13.03,1.09-1.09,1.09-1.78,0-3.55,0-5.33,0-.22,0-.44-.01-.66-.02-.19,0-.35-.15-.36-.32-.01-.4-.02-.8-.02-1.2,0-3.55,0-7.1,0-10.66Z"/>
        <path class="cls-1" d="M209.73,94.32c0,6.3,0,12.6,0,18.91,0,.4,0,.8,0,1.2,0,.31-.16.44-.51.46-.04,0-.09,0-.13,0-2.04,0-4.08,0-6.12,0-.13,0-.26-.03-.39-.05-.15-.02-.24-.15-.26-.26-.04-.26-.03-.53-.03-.8,0-1.73,0-3.46,0-5.19,0-11.14,0-22.28,0-33.42,0-1.87-.22-1.65,1.6-1.66,1.69,0,3.37,0,5.06,0,.18,0,.35.02.53.03.08,0,.24.19.24.28,0,.44.03.89.03,1.33,0,6.39,0,12.78,0,19.17Z"/>
        <path class="cls-1" d="M131.94,48.55c0-4.66,0-9.32,0-13.98,0-.35.02-.71.03-1.06,0-.16.13-.24.25-.27.17-.05.35-.05.53-.05,1.78,0,3.55,0,5.33,0,.09,0,.18,0,.27.01.27.01.43.15.44.39,0,.58,0,1.15.02,1.73,0,.08.04.16.08.23.02.03.1.06.12.05.11-.07.22-.15.3-.24.35-.4.66-.83,1.03-1.22,1.07-1.16,2.41-1.78,3.98-1.91.4-.03.8-.06,1.2-.08.58-.02.7.09.7.67,0,1.91,0,3.82,0,5.73,0,.18,0,.36-.04.53-.03.12-.1.25-.26.27-.26.04-.53.07-.79.09-.76.08-1.48.28-2.18.57-1.23.53-2.14,1.41-2.72,2.61-.31.64-.52,1.32-.62,2.03-.12.88-.2,1.76-.19,2.65,0,5.02,0,10.03,0,15.05,0,.27,0,.53,0,.8,0,1.15.03,1.09-1.09,1.09-1.82,0-3.64,0-5.46,0-.22,0-.44-.02-.66-.06-.07-.01-.14-.1-.18-.17-.04-.07-.06-.17-.06-.25,0-.4-.01-.8-.01-1.2,0-4.66,0-9.32,0-13.98Z"/>
        <path class="cls-1" d="M156.46,48.75c0,4.7,0,9.4,0,14.1,0,.35,0,.71-.03,1.06,0,.12-.09.25-.24.27-.13.02-.26.04-.39.04-2.04,0-4.08,0-6.12,0-.04,0-.09,0-.13,0-.34-.01-.5-.15-.52-.46,0-.18-.01-.35-.01-.53,0-9.71,0-19.43,0-29.14,0-.22.02-.44.06-.66.01-.07.11-.13.17-.18.03-.03.08-.04.12-.04,2.26,0,4.52,0,6.78,0,.1,0,.27.15.28.24.01.13.03.26.03.4,0,.35,0,.71,0,1.06,0,4.61,0,9.23,0,13.84Z"/>
        <path class="cls-1" d="M152.68,29.65c-.98,0-1.95,0-2.93,0-.17,0-.35-.03-.52-.08-.07-.02-.13-.11-.17-.18-.04-.08-.05-.17-.05-.26,0-1.95,0-3.9,0-5.86,0-.25.16-.41.41-.42.22,0,.44-.01.66-.02.71,0,1.42,0,2.13,0,1.24,0,2.48,0,3.73,0,.37,0,.51.12.51.44,0,2,0,3.99,0,5.99,0,.19-.14.35-.31.36-.22,0-.44.02-.66.02-.93,0-1.86,0-2.79,0Z"/>
      </g>
    </g>
  </g>
</svg>